<svg xmlns="http://www.w3.org/2000/svg" xmlns:xlink="http://www.w3.org/1999/xlink" width="500" zoomAndPan="magnify" viewBox="0 0 375 112.499997" height="150" preserveAspectRatio="xMidYMid meet" version="1.0"><defs><g/><clipPath id="e7c887a0c0"><path d="M 62.9375 42.992188 L 77.273438 42.992188 L 77.273438 101.863281 L 62.9375 101.863281 Z M 62.9375 42.992188 " clip-rule="nonzero"/></clipPath><clipPath id="8b74faa16a"><path d="M 12.019531 25.769531 L 26.355469 25.769531 L 26.355469 84.644531 L 12.019531 84.644531 Z M 12.019531 25.769531 " clip-rule="nonzero"/></clipPath><clipPath id="0cbea0a53f"><path d="M 12.03125 87.519531 L 60.121094 87.519531 L 60.121094 101.855469 L 12.03125 101.855469 Z M 12.03125 87.519531 " clip-rule="nonzero"/></clipPath><clipPath id="03b86b2d8d"><path d="M 29.175781 25.769531 L 77.265625 25.769531 L 77.265625 40.105469 L 29.175781 40.105469 Z M 29.175781 25.769531 " clip-rule="nonzero"/></clipPath></defs><g clip-path="url(#e7c887a0c0)"><path fill="#a6a6a6" d="M 62.9375 42.992188 L 77.273438 42.992188 L 77.273438 101.847656 L 62.9375 101.847656 Z M 62.9375 42.992188 " fill-opacity="1" fill-rule="nonzero"/></g><g clip-path="url(#8b74faa16a)"><path fill="#a6a6a6" d="M 26.355469 84.644531 L 12.019531 84.644531 L 12.019531 25.789062 L 26.355469 25.789062 Z M 26.355469 84.644531 " fill-opacity="1" fill-rule="nonzero"/></g><g clip-path="url(#0cbea0a53f)"><path fill="#ffffff" d="M 12.03125 101.855469 L 12.03125 87.519531 L 60.132812 87.519531 L 60.132812 101.855469 Z M 12.03125 101.855469 " fill-opacity="1" fill-rule="nonzero"/></g><g clip-path="url(#03b86b2d8d)"><path fill="#ffffff" d="M 77.265625 25.769531 L 77.265625 40.105469 L 29.160156 40.105469 L 29.160156 25.769531 Z M 77.265625 25.769531 " fill-opacity="1" fill-rule="nonzero"/></g><g fill="#ffffff" fill-opacity="1"><g transform="translate(88.63004, 98.103002)"><g><path d="M 57.921875 -71.5 C 59.148438 -71.5 59.984375 -71.226562 60.421875 -70.6875 C 60.859375 -70.144531 61.078125 -69.367188 61.078125 -68.359375 L 61.078125 -59.4375 C 61.078125 -58.5 60.859375 -57.738281 60.421875 -57.15625 C 59.984375 -56.582031 59.148438 -56.296875 57.921875 -56.296875 L 25.109375 -56.296875 L 25.109375 -43.578125 L 53.359375 -43.578125 C 54.585938 -43.578125 55.421875 -43.304688 55.859375 -42.765625 C 56.296875 -42.222656 56.515625 -41.441406 56.515625 -40.421875 L 56.515625 -31.84375 C 56.515625 -30.894531 56.296875 -30.128906 55.859375 -29.546875 C 55.421875 -28.972656 54.585938 -28.6875 53.359375 -28.6875 L 25.109375 -28.6875 L 25.109375 -3.265625 C 25.109375 -1.890625 24.890625 -1 24.453125 -0.59375 C 24.015625 -0.195312 23.179688 0 21.953125 0 L 11.1875 0 C 9.957031 0 9.125 -0.285156 8.6875 -0.859375 C 8.257812 -1.441406 8.046875 -2.207031 8.046875 -3.15625 L 8.046875 -68.359375 C 8.046875 -69.367188 8.257812 -70.144531 8.6875 -70.6875 C 9.125 -71.226562 9.957031 -71.5 11.1875 -71.5 Z M 57.921875 -71.5 "/></g></g></g><g fill="#ffffff" fill-opacity="1"><g transform="translate(144.052154, 98.103002)"><g><path d="M 62.921875 -71.5 C 63.929688 -71.5 64.707031 -71.28125 65.25 -70.84375 C 65.800781 -70.414062 66.078125 -69.585938 66.078125 -68.359375 L 66.078125 -3.15625 C 66.078125 -2.207031 65.859375 -1.441406 65.421875 -0.859375 C 64.984375 -0.285156 64.148438 0 62.921875 0 L 53.03125 0 C 51.65625 0 50.675781 -0.34375 50.09375 -1.03125 C 49.519531 -1.71875 48.867188 -2.601562 48.140625 -3.6875 L 25.109375 -40.96875 L 25.109375 -3.15625 C 25.109375 -1.914062 24.832031 -1.078125 24.28125 -0.640625 C 23.738281 -0.210938 22.960938 0 21.953125 0 L 11.1875 0 C 10.25 0 9.488281 -0.210938 8.90625 -0.640625 C 8.332031 -1.078125 8.046875 -1.914062 8.046875 -3.15625 L 8.046875 -68.359375 C 8.046875 -69.367188 8.257812 -70.144531 8.6875 -70.6875 C 9.125 -71.226562 9.957031 -71.5 11.1875 -71.5 L 21.40625 -71.5 C 22.78125 -71.5 23.757812 -71.15625 24.34375 -70.46875 C 24.925781 -69.78125 25.578125 -68.894531 26.296875 -67.8125 L 49.34375 -30.640625 L 49.34375 -68.359375 C 49.34375 -69.585938 49.628906 -70.414062 50.203125 -70.84375 C 50.785156 -71.28125 51.546875 -71.5 52.484375 -71.5 Z M 62.921875 -71.5 "/></g></g></g><g fill="#ffffff" fill-opacity="1"><g transform="translate(208.168012, 98.103002)"><g><path d="M 69.546875 -3.046875 C 69.835938 -2.390625 69.910156 -1.71875 69.765625 -1.03125 C 69.617188 -0.34375 68.929688 0 67.703125 0 L 56.296875 0 C 55.128906 0 54.253906 -0.210938 53.671875 -0.640625 C 53.097656 -1.078125 52.59375 -1.953125 52.15625 -3.265625 L 49.125 -11.84375 L 22.5 -11.84375 L 19.453125 -3.265625 C 19.015625 -1.953125 18.523438 -1.078125 17.984375 -0.640625 C 17.441406 -0.210938 16.554688 0 15.328125 0 L 3.90625 0 C 2.75 0 2.078125 -0.34375 1.890625 -1.03125 C 1.710938 -1.71875 1.769531 -2.390625 2.0625 -3.046875 L 26.1875 -68.140625 C 26.625 -69.296875 27.1875 -70.144531 27.875 -70.6875 C 28.5625 -71.226562 29.484375 -71.5 30.640625 -71.5 L 41.078125 -71.5 C 42.304688 -71.5 43.226562 -71.226562 43.84375 -70.6875 C 44.457031 -70.144531 45.019531 -69.296875 45.53125 -68.140625 Z M 35.859375 -51.078125 L 27.71875 -27.0625 L 44.015625 -27.0625 Z M 35.859375 -51.078125 "/></g></g></g><g fill="#ffffff" fill-opacity="1"><g transform="translate(269.365826, 98.103002)"><g/></g></g><g fill="#a6a6a6" fill-opacity="1"><g transform="translate(275.025737, 94.981461)"><g><path d="M 10.6875 0.34375 C 9.34375 0.34375 8.160156 0.0703125 7.140625 -0.46875 C 6.117188 -1.007812 5.335938 -1.757812 4.796875 -2.71875 C 4.253906 -3.6875 3.984375 -4.773438 3.984375 -5.984375 C 3.984375 -7.191406 4.253906 -8.273438 4.796875 -9.234375 C 5.335938 -10.203125 6.117188 -10.960938 7.140625 -11.515625 C 8.160156 -12.066406 9.34375 -12.34375 10.6875 -12.34375 C 12.039062 -12.34375 13.226562 -12.070312 14.25 -11.53125 C 15.28125 -10.988281 16.066406 -10.238281 16.609375 -9.28125 C 17.148438 -8.320312 17.421875 -7.234375 17.421875 -6.015625 C 17.421875 -4.171875 16.804688 -2.648438 15.578125 -1.453125 C 14.359375 -0.253906 12.726562 0.34375 10.6875 0.34375 Z M 10.6875 0.34375 "/></g></g></g><g fill="#ffffff" fill-opacity="1"><g transform="translate(296.423974, 94.981461)"><g><path d="M 16.28125 0.796875 C 13.601562 0.796875 11.28125 0.304688 9.3125 -0.671875 C 7.34375 -1.660156 5.828125 -3.109375 4.765625 -5.015625 C 3.710938 -6.921875 3.1875 -9.210938 3.1875 -11.890625 C 3.1875 -14.367188 3.710938 -16.445312 4.765625 -18.125 C 5.828125 -19.800781 7.46875 -21.175781 9.6875 -22.25 C 11.914062 -23.320312 14.820312 -24.148438 18.40625 -24.734375 C 20.90625 -25.140625 22.804688 -25.582031 24.109375 -26.0625 C 25.410156 -26.539062 26.285156 -27.082031 26.734375 -27.6875 C 27.191406 -28.289062 27.421875 -29.0625 27.421875 -30 C 27.421875 -31.332031 26.953125 -32.351562 26.015625 -33.0625 C 25.078125 -33.769531 23.523438 -34.125 21.359375 -34.125 C 19.035156 -34.125 16.828125 -33.601562 14.734375 -32.5625 C 12.640625 -31.53125 10.820312 -30.171875 9.28125 -28.484375 L 8.515625 -28.484375 L 4.125 -35.109375 C 6.25 -37.453125 8.835938 -39.28125 11.890625 -40.59375 C 14.941406 -41.90625 18.273438 -42.5625 21.890625 -42.5625 C 27.421875 -42.5625 31.421875 -41.390625 33.890625 -39.046875 C 36.367188 -36.703125 37.609375 -33.367188 37.609375 -29.046875 L 37.609375 -10.90625 C 37.609375 -9.039062 38.425781 -8.109375 40.0625 -8.109375 C 40.695312 -8.109375 41.316406 -8.222656 41.921875 -8.453125 L 42.453125 -8.296875 L 43.21875 -0.984375 C 42.632812 -0.609375 41.820312 -0.300781 40.78125 -0.0625 C 39.75 0.175781 38.613281 0.296875 37.375 0.296875 C 34.875 0.296875 32.921875 -0.179688 31.515625 -1.140625 C 30.117188 -2.097656 29.117188 -3.597656 28.515625 -5.640625 L 27.71875 -5.71875 C 25.675781 -1.375 21.863281 0.796875 16.28125 0.796875 Z M 19.625 -7.046875 C 22.039062 -7.046875 23.972656 -7.859375 25.421875 -9.484375 C 26.878906 -11.117188 27.609375 -13.382812 27.609375 -16.28125 L 27.609375 -20.53125 L 26.890625 -20.671875 C 26.253906 -20.171875 25.425781 -19.75 24.40625 -19.40625 C 23.382812 -19.0625 21.914062 -18.726562 20 -18.40625 C 17.726562 -18.03125 16.09375 -17.378906 15.09375 -16.453125 C 14.09375 -15.535156 13.59375 -14.226562 13.59375 -12.53125 C 13.59375 -10.738281 14.125 -9.375 15.1875 -8.4375 C 16.25 -7.507812 17.726562 -7.046875 19.625 -7.046875 Z M 19.625 -7.046875 "/></g></g></g><g fill="#ffffff" fill-opacity="1"><g transform="translate(340.462998, 94.981461)"><g><path d="M 11.25 -46.765625 C 9.351562 -46.765625 7.8125 -47.335938 6.625 -48.484375 C 5.4375 -49.640625 4.84375 -51.128906 4.84375 -52.953125 C 4.84375 -54.742188 5.4375 -56.210938 6.625 -57.359375 C 7.8125 -58.503906 9.351562 -59.078125 11.25 -59.078125 C 12.507812 -59.078125 13.628906 -58.8125 14.609375 -58.28125 C 15.597656 -57.75 16.363281 -57.019531 16.90625 -56.09375 C 17.445312 -55.175781 17.71875 -54.128906 17.71875 -52.953125 C 17.71875 -51.765625 17.445312 -50.703125 16.90625 -49.765625 C 16.363281 -48.828125 15.597656 -48.09375 14.609375 -47.5625 C 13.628906 -47.03125 12.507812 -46.765625 11.25 -46.765625 Z M 6.015625 0 L 6.015625 -41.765625 L 16.515625 -41.765625 L 16.515625 0 Z M 6.015625 0 "/></g></g></g></svg>